<?xml version="1.0" encoding="UTF-8"?>
<svg width="210mm" height="297mm" version="1.1" viewBox="0 0 210 297" xmlns="http://www.w3.org/2000/svg" xmlns:cc="http://creativecommons.org/ns#" xmlns:dc="http://purl.org/dc/elements/1.1/" xmlns:rdf="http://www.w3.org/1999/02/22-rdf-syntax-ns#">
 <metadata>
  <rdf:RDF>
   <cc:Work rdf:about="">
    <dc:format>image/svg+xml</dc:format>
    <dc:type rdf:resource="http://purl.org/dc/dcmitype/StillImage"/>
    <dc:title/>
   </cc:Work>
  </rdf:RDF>
 </metadata>
 <g stroke-width="8.7024">
  <path d="m105.13 51.694c-3.6025 0-6.5265-2.924-6.5265-6.5268v-34.131c0-3.6028 2.924-6.5268 6.5265-6.5268 3.6029 0 6.5268 2.924 6.5268 6.5268v34.131c0 3.6028-2.924 6.5268-6.5268 6.5268" fill="#1872f0"/>
  <g fill="#b2bbcc">
   <path d="m189.77 216.31h-169.28c-3.6029 0-6.5269-2.924-6.5269-6.5268 0-3.6028 2.924-6.5268 6.5269-6.5268h169.28c3.6029 0 6.5268 2.924 6.5268 6.5268 0 3.6028-2.924 6.5268-6.5268 6.5268"/>
   <path d="m23.17 293.76c-0.73018 0-1.4801-0.12168-2.2201-0.38286-3.394-1.2357-5.1431-4.969-3.9249-8.363l64.189-177.69c1.2268-3.3852 4.9428-5.1605 8.3628-3.9248 3.394 1.2272 5.1431 4.969 3.9248 8.3543l-64.189 177.7c-0.96699 2.6543-3.4723 4.3077-6.1437 4.3077"/>
   <path d="m187.1 293.76c-2.6707 0-5.178-1.6534-6.144-4.3077l-64.188-177.7c-1.2268-3.3852 0.52954-7.1272 3.9245-8.3543 3.3854-1.2357 7.1274 0.53941 8.3543 3.9248l64.197 177.69c1.2202 3.3939-0.52954 7.1272-3.9245 8.363-0.73017 0.25983-1.49 0.38285-2.2201 0.38285"/>
  </g>
  <path d="m105.13 233.38c-3.6025 0-6.5265-2.924-6.5265-6.5268v-34.131c0-3.6028 2.924-6.5268 6.5265-6.5268 3.6029 0 6.5268 2.924 6.5268 6.5268v34.131c0 3.6028-2.924 6.5268-6.5268 6.5268" fill="#1872f0"/>
  <path d="m122.95 144.38c-2.3846 0-4.6906-1.314-5.8309-3.5941-1.6182-3.22-0.32891-7.1446 2.8977-8.7633 11.417-5.7436 18.519-17.135 18.519-29.727 0-18.414-14.985-33.4-33.4-33.4-18.423 0-33.4 14.985-33.4 33.4 0 12.592 7.0926 23.984 18.519 29.727 3.22 1.6186 4.5162 5.5434 2.8977 8.7633-1.6182 3.22-5.5434 4.5252-8.763 2.898-15.856-7.9714-25.707-23.827-25.707-41.388 0-25.611 20.833-46.453 46.453-46.453 25.611 0 46.453 20.842 46.453 46.453 0 17.561-9.8511 33.417-25.715 41.388-0.9308 0.47856-1.9406 0.69629-2.924 0.69629" fill="#2c72f0"/>
 </g>
</svg>
